# xmcd
# Track frame offsets:
# 150
# 11533
# 33118
# 48959
# 67904
# 79184
# 96710
# 106577
# 117695
# 131191
# 147706
# 158980
# 179194
# 198238
# 212341
# 224772
# 241321
# 261978
# 280684
# 294802
# 314643
#
# Disc length: 4435 seconds
# Revision: 0
# Processed by: cddbd v1.5.2PL0 Copyright (c) Steve Scherf et al.
# Submitted via: VisiTrax 2.11.3.279 - For more info visit www.synapsa.com
#
DISCID=46115115
DTITLE=Various Artist - CRS (Country Radio Singles) No. 179
DYEAR=2015
DGENRE=Country
TTITLE0=Basjric, Melissa - Do or Die
TTITLE1=Brook Chivell Band, The - Always You
TTITLE2=Cheers, Steve - Roger That
TTITLE3=Austin, Haak - January
TTITLE4=Anthony, Neil - Peanut Butter on Toast
TTITLE5=Jetty Road - What We Did Last Night
TTITLE6=Allen, Don - All the Good Ones
TTITLE7=Bowen and Clarke - Every Bodies Doin'It
TTITLE8=Kenne, James Stewart - Sauvignon Blanc
TTITLE9=McNaughton, Steve - Sands of Time
TTITLE10=Humphries, Sandra - You Still Turn Me On
TTITLE11=Jay Seeney Band, The - Indescribable
TTITLE12=Turner, Caitlyn - Summer
TTITLE13=Dowsett, Rod - Tradies Song
TTITLE14=Williams, J.R - White Crosses in the Jungle
TTITLE15=Hammond, Gary - Fare Thee Well
TTITLE16=Nethery, Becci - I Wrote This One For You
TTITLE17=Josephson, Shane - A Nation Was Born
TTITLE18=Watling and Bates - Misery Loves Company
TTITLE19=Noey, Ashie - There For You
TTITLE20=Cook, Aly - No Phone, No Mail, No Internet
EXTD=
EXTT0=
EXTT1=
EXTT2=
EXTT3=
EXTT4=
EXTT5=
EXTT6=
EXTT7=
EXTT8=
EXTT9=
EXTT10=
EXTT11=
EXTT12=
EXTT13=
EXTT14=
EXTT15=
EXTT16=
EXTT17=
EXTT18=
EXTT19=
EXTT20=
PLAYORDER=
